# xmcd
#
# Track frame offsets: 
#        150
#        18767
#        43595
#        71806
#        90181
#        106689
#        136670
#        176206
#        187755
#        215315
#        228471
#
# Disc length: 3752 seconds
#
# Revision: 0
# Processed by: cddbd v1.5.2PL0 Copyright (c) Steve Scherf et al.
# Submitted via: ExactAudioCopy v1.0b3
#
DISCID=810ea60b
DTITLE=Fossen and Struijk Band - Clubbing
DYEAR=2013
DGENRE=Blues
TTITLE0=I'm Going Down to Clarksdale
TTITLE1=That Will Never Do
TTITLE2=Bad Avenue
TTITLE3=Gotta Love Somebody
TTITLE4=If It Is Too Late
TTITLE5=Back to School
TTITLE6=Rosalie
TTITLE7=Can't Be Satisfied
TTITLE8=Ain't Gonna Worry About Tomorrow
TTITLE9=Kiddeo
TTITLE10=Sinner's Prayer
EXTD=
EXTT0=
EXTT1=
EXTT2=
EXTT3=
EXTT4=
EXTT5=
EXTT6=
EXTT7=
EXTT8=
EXTT9=
EXTT10=
PLAYORDER=
